<svg xmlns="http://www.w3.org/2000/svg" width="430" height="932" viewBox="0 0 430 932">
  <style>
    .bg { fill: #f5f7f6; }
    .phone { fill: #ffffff; stroke: #1f2937; stroke-width: 2; }
    .screen { fill: #fcfcfb; stroke: #cbd5e1; stroke-width: 1.5; }
    .bar { fill: #e5e7eb; stroke: #9ca3af; stroke-width: 1; }
    .card { fill: #ffffff; stroke: #94a3b8; stroke-width: 1.5; rx: 16; }
    .card-soft { fill: #f8fafc; stroke: #cbd5e1; stroke-width: 1.2; rx: 14; }
    .cta { fill: #d1fae5; stroke: #059669; stroke-width: 1.5; rx: 14; }
    .warn { fill: #ffedd5; stroke: #ea580c; stroke-width: 1.5; rx: 12; }
    .chip { fill: #eef2f7; stroke: #94a3b8; stroke-width: 1; rx: 10; }
    .title { font: 700 20px Inter, Arial, sans-serif; fill: #0f172a; }
    .subtitle { font: 600 14px Inter, Arial, sans-serif; fill: #334155; }
    .label { font: 600 12px Inter, Arial, sans-serif; fill: #475569; }
    .meta { font: 500 11px Inter, Arial, sans-serif; fill: #64748b; }
    .body { font: 500 12px Inter, Arial, sans-serif; fill: #1f2937; }
    .tiny { font: 500 10px Inter, Arial, sans-serif; fill: #64748b; }
    .center { text-anchor: middle; dominant-baseline: middle; }
    .outline { fill: none; stroke: #94a3b8; stroke-width: 1.2; rx: 12; }
    .icon { fill: #e2e8f0; stroke: #64748b; stroke-width: 1; }
    .divider { stroke: #cbd5e1; stroke-width: 1; }
</style>
  <rect x="0" y="0" width="430" height="932" class="bg"/>
  <rect x="15" y="15" width="400" height="900" rx="36" ry="36" class="phone"/>
  <rect x="170" y="34" width="90" height="10" rx="5" class="bar"/>
  <rect x="35" y="75" width="360" height="780" rx="28" ry="28" class="screen"/>
  <text x="55" y="103" class="title">Plan</text>
  <text x="55" y="123" class="meta">Semana como objeto central</text>
  <rect x="55" y="91" width="320" height="52" class="card-soft" rx="16" ry="16"/><text x="71" y="113" class="subtitle">Semana del 14–20 julio</text><text x="71" y="131" class="meta">Estado: borrador · Lista no actualizada</text><rect x="285" y="101" width="78" height="30" class="cta" rx="12" ry="12"/><text x="324" y="120" class="label" text-anchor="middle">Aprobar</text><rect x="55" y="159" width="320" height="78" class="card" rx="18" ry="18"/><text x="73" y="183" class="subtitle">Hoy</text><text x="73" y="205" class="body">Comida · Lentejas suaves</text><text x="73" y="223" class="body">Cena · Tortilla + ensalada</text><rect x="55" y="253" width="320" height="94" class="card-soft" rx="18" ry="18"/><text x="73" y="277" class="subtitle">Lunes</text><rect x="285" y="267" width="70" height="22" class="chip" rx="10" ry="10"/><text x="320" y="282" class="tiny" text-anchor="middle">Encaja</text><text x="73" y="303" class="body">Comida · Pasta verduras</text><text x="73" y="323" class="body">Cena · Crema + pescado</text><text x="313" y="323" class="tiny">Sustituir ›</text><rect x="55" y="361" width="320" height="94" class="card-soft" rx="18" ry="18"/><text x="73" y="385" class="subtitle">Martes</text><rect x="285" y="375" width="70" height="22" class="chip" rx="10" ry="10"/><text x="320" y="390" class="tiny" text-anchor="middle">Encaja</text><text x="73" y="411" class="body">Comida · Arroz pollo</text><text x="73" y="431" class="body">Cena · Ensalada templada</text><text x="313" y="431" class="tiny">Sustituir ›</text><rect x="55" y="469" width="320" height="94" class="card-soft" rx="18" ry="18"/><text x="73" y="493" class="subtitle">Miércoles</text><rect x="285" y="483" width="70" height="22" class="chip" rx="10" ry="10"/><text x="320" y="498" class="tiny" text-anchor="middle">Encaja</text><text x="73" y="519" class="body">Comida · Garbanzos</text><text x="73" y="539" class="body">Cena · Salmón + puré</text><text x="313" y="539" class="tiny">Sustituir ›</text><rect x="47" y="779" width="336" height="64" class="card-soft" rx="20" ry="20"/><rect x="54" y="795" width="50" height="34" class="cta" rx="12" ry="12"/><text x="79" y="844" class="tiny" text-anchor="middle">Plan</text><rect x="141" y="795" width="50" height="34" class="card-soft" rx="12" ry="12"/><text x="166" y="844" class="tiny" text-anchor="middle">Recetas</text><rect x="229" y="795" width="50" height="34" class="card-soft" rx="12" ry="12"/><text x="254" y="844" class="tiny" text-anchor="middle">Compra</text><rect x="316" y="795" width="50" height="34" class="card-soft" rx="12" ry="12"/><text x="341" y="844" class="tiny" text-anchor="middle">Familia</text>
</svg>