<svg xmlns="http://www.w3.org/2000/svg" width="430" height="932" viewBox="0 0 430 932">
  <style>
    .bg { fill: #f5f7f6; }
    .phone { fill: #ffffff; stroke: #1f2937; stroke-width: 2; }
    .screen { fill: #fcfcfb; stroke: #cbd5e1; stroke-width: 1.5; }
    .bar { fill: #e5e7eb; stroke: #9ca3af; stroke-width: 1; }
    .card { fill: #ffffff; stroke: #94a3b8; stroke-width: 1.5; rx: 16; }
    .card-soft { fill: #f8fafc; stroke: #cbd5e1; stroke-width: 1.2; rx: 14; }
    .cta { fill: #d1fae5; stroke: #059669; stroke-width: 1.5; rx: 14; }
    .warn { fill: #ffedd5; stroke: #ea580c; stroke-width: 1.5; rx: 12; }
    .chip { fill: #eef2f7; stroke: #94a3b8; stroke-width: 1; rx: 10; }
    .title { font: 700 20px Inter, Arial, sans-serif; fill: #0f172a; }
    .subtitle { font: 600 14px Inter, Arial, sans-serif; fill: #334155; }
    .label { font: 600 12px Inter, Arial, sans-serif; fill: #475569; }
    .meta { font: 500 11px Inter, Arial, sans-serif; fill: #64748b; }
    .body { font: 500 12px Inter, Arial, sans-serif; fill: #1f2937; }
    .tiny { font: 500 10px Inter, Arial, sans-serif; fill: #64748b; }
    .center { text-anchor: middle; dominant-baseline: middle; }
    .outline { fill: none; stroke: #94a3b8; stroke-width: 1.2; rx: 12; }
    .icon { fill: #e2e8f0; stroke: #64748b; stroke-width: 1; }
    .divider { stroke: #cbd5e1; stroke-width: 1; }
</style>
  <rect x="0" y="0" width="430" height="932" class="bg"/>
  <rect x="15" y="15" width="400" height="900" rx="36" ry="36" class="phone"/>
  <rect x="170" y="34" width="90" height="10" rx="5" class="bar"/>
  <rect x="35" y="75" width="360" height="780" rx="28" ry="28" class="screen"/>
  <text x="55" y="103" class="title">Familia</text>
  <text x="55" y="123" class="meta">Perfiles claros, no clínicos</text>
  <rect x="55" y="91" width="320" height="58" class="card-soft" rx="16" ry="16"/><text x="73" y="113" class="subtitle">Estado del hogar</text><text x="73" y="133" class="body">Listo para planificar · faltan 0 obligatorios</text><rect x="55" y="163" width="320" height="110" class="card" rx="18" ry="18"/><rect x="71" y="181" width="44" height="44" class="card-soft" rx="14" ry="14"/><text x="93" y="208" class="subtitle" text-anchor="middle">M</text><text x="127" y="191" class="subtitle">Mamá</text><text x="127" y="215" class="body">Sin lactosa · evita picante</text><text x="127" y="237" class="meta">Mantener + cenas rápidas</text><text x="317" y="253" class="tiny">Editar ›</text><rect x="55" y="287" width="320" height="110" class="card" rx="18" ry="18"/><rect x="71" y="305" width="44" height="44" class="card-soft" rx="14" ry="14"/><text x="93" y="332" class="subtitle" text-anchor="middle">P</text><text x="127" y="315" class="subtitle">Papá</text><text x="127" y="339" class="body">Sin restricciones</text><text x="127" y="361" class="meta">Perder peso suave</text><text x="317" y="377" class="tiny">Editar ›</text><rect x="55" y="411" width="320" height="110" class="card" rx="18" ry="18"/><rect x="71" y="429" width="44" height="44" class="card-soft" rx="14" ry="14"/><text x="93" y="456" class="subtitle" text-anchor="middle">P</text><text x="127" y="439" class="subtitle">Peque 1</text><text x="127" y="463" class="body">Sin gluten</text><text x="127" y="485" class="meta">Comer variado</text><text x="317" y="501" class="tiny">Editar ›</text><rect x="241" y="687" width="134" height="44" class="cta" rx="16" ry="16"/><text x="308" y="715" class="tiny" text-anchor="middle">Añadir miembro</text><rect x="47" y="779" width="336" height="64" class="card-soft" rx="20" ry="20"/><rect x="54" y="795" width="50" height="34" class="card-soft" rx="12" ry="12"/><text x="79" y="844" class="tiny" text-anchor="middle">Plan</text><rect x="141" y="795" width="50" height="34" class="card-soft" rx="12" ry="12"/><text x="166" y="844" class="tiny" text-anchor="middle">Recetas</text><rect x="229" y="795" width="50" height="34" class="card-soft" rx="12" ry="12"/><text x="254" y="844" class="tiny" text-anchor="middle">Compra</text><rect x="316" y="795" width="50" height="34" class="cta" rx="12" ry="12"/><text x="341" y="844" class="tiny" text-anchor="middle">Familia</text>
</svg>